<?xml version="1.0" encoding="utf-8"?>
<!-- Generator: Adobe Illustrator 21.0.0, SVG Export Plug-In . SVG Version: 6.00 Build 0)  -->
<svg version="1.1" id="Layer_1" xmlns="http://www.w3.org/2000/svg" xmlns:xlink="http://www.w3.org/1999/xlink" x="0px" y="0px"
	 viewBox="0 0 204.5 31" style="enable-background:new 0 0 204.5 31;" xml:space="preserve">
<title>logoBDR</title>
<path d="M0,9.2h4.9c3,0,5.3,0.8,5.3,3.5c0,1.5-1,2.7-2.4,3.1v0.1c2,0.4,3.1,1.4,3.1,3.3c0,2.9-2.4,4.2-5.5,4.2H0V9.2z M4.7,14.9
	c1.6,0,2.3-0.7,2.3-1.7s-0.7-1.5-2.2-1.5H3.2v3.2H4.7z M5,20.9c1.7,0,2.7-0.6,2.7-1.9S6.8,17.2,5,17.2H3.2v3.7L5,20.9z"/>
<path d="M13.2,9.2h4c4.4,0,7.1,2.2,7.1,7s-2.8,7.2-7,7.2h-4.2L13.2,9.2z M17,20.8c2.4,0,4-1.2,4-4.6s-1.6-4.4-4-4.4h-0.6v9L17,20.8z
	"/>
<path d="M34.7,23.4l-2.7-5.1h-1.7v5.1H27V9.2h5.1c3,0,5.5,1,5.5,4.4c0.1,1.8-0.9,3.4-2.5,4.1l3.2,5.7L34.7,23.4z M30.2,15.7h1.6
	c1.7,0,2.6-0.7,2.6-2.1s-0.9-1.9-2.6-1.9h-1.6V15.7z"/>
<path d="M46.3,11.9h-3.9V9.2h11v2.7h-3.9v11.5h-3.2V11.9z"/>
<path d="M55.7,9.2h3.2v5.5h4.9V9.2H67v14.2h-3.2v-5.9h-4.9v5.9h-3.2V9.2z"/>
<path d="M70.3,9.2h8.9v2.7h-5.7v2.8h4.8v2.7h-4.8v3.3h5.9v2.7h-9.1V9.2z"/>
<path d="M89.9,23.4l-2.7-5.1h-1.8v5.1h-3.2V9.2h5.1c3,0,5.5,1,5.5,4.4c0.1,1.8-0.9,3.4-2.5,4.1l3.2,5.7L89.9,23.4z M85.4,15.7h1.6
	c1.7,0,2.6-0.7,2.6-2.1s-0.9-1.9-2.6-1.9h-1.6L85.4,15.7z"/>
<path d="M95.6,9.2H99l2.4,6.4l0.8,2.5h0.1l0.8-2.5l2.3-6.4h3.4v14.2h-3v-5.2c0-1.4,0.3-3.5,0.4-4.8h-0.1l-1.2,3.3l-2.2,5.5h-1.3
	l-2.2-5.5l-1.1-3.3h-0.1c0.2,1.4,0.4,3.4,0.4,4.8v5.2h-3L95.6,9.2z"/>
<path d="M112.2,9.2h8.9v2.7h-5.7v2.8h4.8v2.7h-4.8v3.3h5.9v2.7h-9.1L112.2,9.2z"/>
<path d="M130.8,20h-4.4l-0.9,3.4h-3.2l4.5-14.2h3.8l4.5,14.2h-3.4L130.8,20z M130.1,17.5l-0.4-1.3c-0.4-1.4-0.8-3.1-1.1-4.6h-0.1
	c-0.3,1.5-0.7,3.2-1.1,4.6l-0.4,1.3H130.1z"/>
<path d="M146.5,8.8c1.5,0,2.9,0.6,3.9,1.7l-0.6,0.6c-0.8-1-2-1.5-3.3-1.5c-3.3,0-5.3,2.5-5.3,6.5s1.9,6.6,5.2,6.6
	c1.2,0.1,2.3-0.3,3.2-1.1v-4.5h-3.4v-0.9h4.4V22c-1.1,1.1-2.7,1.7-4.3,1.6c-3.7,0-6.2-2.9-6.2-7.5S142.7,8.8,146.5,8.8z"/>
<path d="M162.3,23.4l-3.9-6.6h-3v6.6h-1V9h4.1c2.9,0,4.7,1,4.7,3.8c0,2.3-1.4,3.6-3.7,3.9l3.9,6.7L162.3,23.4z M158.2,15.9
	c2.6,0,3.9-1,3.9-3.1s-1.4-2.9-3.9-2.9h-2.9v6.1H158.2z"/>
<path d="M166.1,16.1c0-4.5,2.5-7.4,5.9-7.4s5.9,2.9,5.9,7.4s-2.5,7.5-5.9,7.5S166.1,20.7,166.1,16.1z M176.9,16.1c0-4-2-6.5-4.9-6.5
	s-4.9,2.5-4.9,6.5s2,6.6,4.9,6.6S176.9,20.1,176.9,16.1L176.9,16.1z"/>
<path d="M181.3,9h1v8.7c0,3.8,1.8,5,3.8,5s3.9-1.1,3.9-5V9h1v8.8c0,4.5-2.4,5.8-4.9,5.8s-4.9-1.3-4.9-5.8V9z"/>
<path d="M195.5,9h3.9c3.2,0,5.1,1,5.1,4c0,2.8-1.9,4.2-5.1,4.2h-2.9v6.2h-1V9z M199.1,16.3c2.9,0,4.3-1,4.3-3.3s-1.4-3.2-4.3-3.2
	h-2.7v6.5H199.1z"/>
</svg>
